<svg width="1600" height="482" viewBox="0 0 1600 482" fill="none" xmlns="http://www.w3.org/2000/svg">
<rect width="1600" height="290" transform="translate(0 195)" fill="#6A31B5" fill-opacity="0.8"/>
<g clip-path="url(#clip0_20_153)">
<path d="M1920 195C1546.67 209.338 53.3334 213.162 -320 195C-693.333 176.838 -373.333 100.368 -320 86.0295C-266.667 71.6913 -106.667 108.971 3.05176e-05 108.971C106.667 108.971 213.333 86.0295 320 86.0295C426.667 86.0295 533.333 108.971 640 108.971C746.667 108.971 853.333 86.0295 960 86.0295C1066.67 86.0295 1173.33 108.971 1280 108.971C1386.67 108.971 1493.33 86.0295 1600 86.0295C1706.67 86.0295 1866.67 90.8089 1920 108.971C1973.33 127.132 2293.33 180.662 1920 195C1546.67 209.338 53.3334 213.162 -320 195H1920Z" fill="#6A31B5" fill-opacity="0.8"/>
</g>
<defs>
<clipPath id="clip0_20_153">
<rect width="1600" height="195" fill="white"/>
</clipPath>
</defs>
</svg>
