<svg width="1600" height="195" viewBox="0 0 1600 195" fill="none" xmlns="http://www.w3.org/2000/svg">
<g clip-path="url(#clip0_18_2)">
<path d="M1920 195C1546.67 209.338 53.3334 213.162 -320 195C-693.333 176.838 -373.333 100.368 -320 86.0294C-266.667 71.6912 -106.667 108.971 3.05485e-05 108.971C106.667 108.971 213.333 86.0294 320 86.0294C426.667 86.0294 533.333 108.971 640 108.971C746.667 108.971 853.333 86.0294 960 86.0294C1066.67 86.0294 1173.33 108.971 1280 108.971C1386.67 108.971 1493.33 86.0294 1600 86.0294C1706.67 86.0294 1866.67 90.8088 1920 108.971C1973.33 127.132 2293.33 180.662 1920 195C1546.67 209.338 53.3334 213.162 -320 195Z" fill="#6A31B5" fill-opacity="0.8"/>
</g>
<defs>
<clipPath id="clip0_18_2">
<rect width="1600" height="195" fill="white"/>
</clipPath>
</defs>
</svg>
