<svg width="1600" height="498" viewBox="0 0 1600 498" fill="none" xmlns="http://www.w3.org/2000/svg">
<rect width="1600" height="379" transform="translate(0 119)" fill="#6A31B5" fill-opacity="0.8"/>
<g clip-path="url(#clip0_57_1512)">
<path d="M1758.43 141.253C1385.09 155.591 -108.24 159.415 -481.574 141.253C-854.907 123.091 -534.907 46.6207 -481.574 32.2824C-428.24 17.9442 -268.24 55.2236 -161.574 55.2236C-54.907 55.2236 51.7597 32.2824 158.426 32.2824C265.093 32.2824 371.76 55.2236 478.426 55.2236C585.093 55.2236 691.76 32.2824 798.426 32.2824C905.093 32.2824 1011.76 55.2236 1118.43 55.2236C1225.09 55.2236 1331.76 32.2824 1438.43 32.2824C1545.09 32.2824 1705.09 37.0618 1758.43 55.2236C1811.76 73.3854 2131.76 126.915 1758.43 141.253C1385.09 155.591 -108.24 159.415 -481.574 141.253Z" fill="#6A31B5" fill-opacity="0.8"/>
</g>
<defs>
<clipPath id="clip0_57_1512">
<rect width="1600" height="119" fill="white"/>
</clipPath>
</defs>
</svg>
