<svg width="345" height="3" viewBox="0 0 345 3" fill="none" xmlns="http://www.w3.org/2000/svg">
<path d="M0 0.5H2.48211V2.5H0M4.96421 0.5H7.44632V2.5H4.96421M9.92843 0.5H12.4105V2.5H9.92843M14.8926 0.5H17.3748V2.5H14.8926M19.8569 0.5H22.339V2.5H19.8569M24.8211 0.5H27.3032V2.5H24.8211M29.7853 0.5H32.2674V2.5H29.7853M34.7495 0.5H37.2316V2.5H34.7495M39.7137 0.5H42.1958V2.5H39.7137M44.6779 0.5H47.16V2.5H44.6779M49.6421 0.5H52.1243V2.5H49.6421M54.6064 0.5H57.0885V2.5H54.6064M59.5706 0.5H62.0527V2.5H59.5706M64.5348 0.5H67.0169V2.5H64.5348M69.499 0.5H71.9811V2.5H69.499M74.4632 0.5H76.9453V2.5H74.4632M79.4274 0.5H81.9095V2.5H79.4274M84.3917 0.5H86.8738V2.5H84.3917M89.3559 0.5H91.838V2.5H89.3559M94.3201 0.5H96.7957V2.5H94.3201M99.2778 0.5H101.76V2.5H99.2778M104.242 0.5H106.724V2.5H104.242M109.206 0.5H111.688V2.5H109.206M114.17 0.5H116.653V2.5H114.17M119.135 0.5H121.617V2.5H119.135M124.099 0.5H126.581V2.5H124.099M129.063 0.5H131.545V2.5H129.063M134.027 0.5H136.509V2.5H134.027M138.992 0.5H141.474V2.5H138.992M143.956 0.5H146.438V2.5H143.956M148.92 0.5H151.402V2.5H148.92M153.884 0.5H156.366V2.5H153.884M158.848 0.5H161.331V2.5H158.848M163.813 0.5H166.295V2.5H163.813M168.777 0.5H171.259V2.5H168.777M173.741 0.5H176.223V2.5H173.741M178.705 0.5H181.187V2.5H178.705M183.669 0.5H186.152V2.5H183.669M188.634 0.5H191.116V2.5H188.634M193.598 0.5H196.08V2.5H193.598M198.562 0.5H201.044V2.5H198.562M203.526 0.5H206.008V2.5H203.526M208.491 0.5H210.973V2.5H208.491M213.455 0.5H215.937V2.5H213.455M218.419 0.5H220.901V2.5H218.419M223.377 0.5H225.859V2.5H223.377M228.341 0.5H230.823V2.5H228.341M233.305 0.5H235.787V2.5H233.305M238.269 0.5H240.751V2.5H238.269M243.234 0.5H245.716V2.5H243.234M248.198 0.5H250.68V2.5H248.198M253.162 0.5H255.644V2.5H253.162M258.126 0.5H260.608V2.5H258.126M263.09 0.5H265.573V2.5H263.09M268.055 0.5H270.537V2.5H268.055M273.019 0.5H275.501V2.5H273.019M277.983 0.5H280.465V2.5H277.983M282.947 0.5H285.429V2.5H282.947M287.912 0.5H290.394V2.5H287.912M292.876 0.5H295.358V2.5H292.876M297.84 0.5H300.322V2.5H297.84M302.804 0.5H305.286V2.5H302.804M307.768 0.5H310.251V2.5H307.768M312.733 0.5H315.215V2.5H312.733M317.697 0.5H320.179V2.5H317.697M322.661 0.5H325.143V2.5H322.661M327.625 0.5H330.107V2.5H327.625M332.589 0.5H335.072V2.5H332.589M337.554 0.5H340.036V2.5H337.554M342.518 0.5H345V2.5H342.518" fill="#2946BF"/>
</svg>
