<svg width="566" height="3" viewBox="0 0 566 3" fill="none" xmlns="http://www.w3.org/2000/svg">
<path d="M0 0.5H4.0721V2.5H0M8.14419 0.5H12.2163V2.5H8.14419M16.2884 0.5H20.3605V2.5H16.2884M24.4326 0.5H28.5047V2.5H24.4326M32.5768 0.5H36.6489V2.5H32.5768M40.721 0.5H44.793V2.5H40.721M48.8651 0.5H52.9372V2.5H48.8651M57.0093 0.5H61.0814V2.5H57.0093M65.1535 0.5H69.2256V2.5H65.1535M73.2977 0.5H77.3698V2.5H73.2977M81.4419 0.5H85.514V2.5H81.4419M89.5861 0.5H93.6582V2.5H89.5861M97.7303 0.5H101.802V2.5H97.7303M105.874 0.5H109.947V2.5H105.874M114.019 0.5H118.091V2.5H114.019M122.163 0.5H126.235V2.5H122.163M130.307 0.5H134.379V2.5H130.307M138.451 0.5H142.523V2.5H138.451M146.595 0.5H150.668V2.5H146.595M154.74 0.5H158.801V2.5H154.74M162.873 0.5H166.945V2.5H162.873M171.017 0.5H175.089V2.5H171.017M179.162 0.5H183.234V2.5H179.162M187.306 0.5H191.378V2.5H187.306M195.45 0.5H199.522V2.5H195.45M203.594 0.5H207.666V2.5H203.594M211.738 0.5H215.81V2.5H211.738M219.883 0.5H223.955V2.5H219.883M228.027 0.5H232.099V2.5H228.027M236.171 0.5H240.243V2.5H236.171M244.315 0.5H248.387V2.5H244.315M252.459 0.5H256.531V2.5H252.459M260.603 0.5H264.676V2.5H260.603M268.748 0.5H272.82V2.5H268.748M276.892 0.5H280.964V2.5H276.892M285.036 0.5H289.108V2.5H285.036M293.18 0.5H297.252V2.5H293.18M301.324 0.5H305.397V2.5H301.324M309.469 0.5H313.541V2.5H309.469M317.613 0.5H321.685V2.5H317.613M325.757 0.5H329.829V2.5H325.757M333.901 0.5H337.973V2.5H333.901M342.045 0.5H346.117V2.5H342.045M350.19 0.5H354.262V2.5H350.19M358.334 0.5H362.406V2.5H358.334M366.467 0.5H370.539V2.5H366.467M374.612 0.5H378.684V2.5H374.612M382.756 0.5H386.828V2.5H382.756M390.9 0.5H394.972V2.5H390.9M399.044 0.5H403.116V2.5H399.044M407.188 0.5H411.26V2.5H407.188M415.332 0.5H419.405V2.5H415.332M423.477 0.5H427.549V2.5H423.477M431.621 0.5H435.693V2.5H431.621M439.765 0.5H443.837V2.5H439.765M447.909 0.5H451.981V2.5H447.909M456.053 0.5H460.126V2.5H456.053M464.198 0.5H468.27V2.5H464.198M472.342 0.5H476.414V2.5H472.342M480.486 0.5H484.558V2.5H480.486M488.63 0.5H492.702V2.5H488.63M496.774 0.5H500.846V2.5H496.774M504.919 0.5H508.991V2.5H504.919M513.063 0.5H517.135V2.5H513.063M521.207 0.5H525.279V2.5H521.207M529.351 0.5H533.423V2.5H529.351M537.495 0.5H541.567V2.5H537.495M545.64 0.5H549.712V2.5H545.64M553.784 0.5H557.856V2.5H553.784M561.928 0.5H566V2.5H561.928" fill="#2946BF"/>
</svg>
