<svg width="28" height="26" viewBox="0 0 28 26" fill="none" xmlns="http://www.w3.org/2000/svg">
<path d="M26.8438 5.8625C26.4249 4.89261 25.8209 4.01371 25.0656 3.275C24.3098 2.53408 23.4186 1.94528 22.4406 1.54062C21.4265 1.11935 20.3388 0.903722 19.2406 0.906249C17.7 0.906249 16.1969 1.32812 14.8906 2.125C14.5781 2.31562 14.2812 2.525 14 2.75312C13.7188 2.525 13.4219 2.31562 13.1094 2.125C11.8031 1.32812 10.3 0.906249 8.75937 0.906249C7.65 0.906249 6.575 1.11875 5.55937 1.54062C4.57812 1.94687 3.69375 2.53125 2.93437 3.275C2.17811 4.01288 1.57399 4.89199 1.15625 5.8625C0.721875 6.87187 0.5 7.94375 0.5 9.04687C0.5 10.0875 0.7125 11.1719 1.13438 12.275C1.4875 13.1969 1.99375 14.1531 2.64062 15.1187C3.66563 16.6469 5.075 18.2406 6.825 19.8563C9.725 22.5344 12.5969 24.3844 12.7188 24.4594L13.4594 24.9344C13.7875 25.1438 14.2094 25.1438 14.5375 24.9344L15.2781 24.4594C15.4 24.3813 18.2687 22.5344 21.1719 19.8563C22.9219 18.2406 24.3313 16.6469 25.3563 15.1187C26.0031 14.1531 26.5125 13.1969 26.8625 12.275C27.2844 11.1719 27.4969 10.0875 27.4969 9.04687C27.5 7.94375 27.2781 6.87187 26.8438 5.8625Z" fill="#9747FF"/>
</svg>
