<svg width="32" height="32" viewBox="0 0 32 32" fill="none" xmlns="http://www.w3.org/2000/svg">
<g clip-path="url(#clip0_119557_40)">
<path d="M5.33333 13.3333C5.68696 13.3333 6.02609 13.4738 6.27614 13.7239C6.52619 13.9739 6.66667 14.3131 6.66667 14.6667V24C6.66667 24.3536 6.52619 24.6928 6.27614 24.9428C6.02609 25.1929 5.68696 25.3333 5.33333 25.3333C4.97971 25.3333 4.64057 25.1929 4.39052 24.9428C4.14048 24.6928 4 24.3536 4 24V14.6667C4 14.3131 4.14048 13.9739 4.39052 13.7239C4.64057 13.4738 4.97971 13.3333 5.33333 13.3333V13.3333ZM9.33333 14.6667C9.68696 14.6667 10.0261 14.8072 10.2761 15.0572C10.5262 15.3073 10.6667 15.6464 10.6667 16V24C10.6667 24.3536 10.5262 24.6928 10.2761 24.9428C10.0261 25.1929 9.68696 25.3333 9.33333 25.3333C8.97971 25.3333 8.64057 25.1929 8.39052 24.9428C8.14048 24.6928 8 24.3536 8 24V16C8 15.6464 8.14048 15.3073 8.39052 15.0572C8.64057 14.8072 8.97971 14.6667 9.33333 14.6667ZM13.3333 9.33334C13.687 9.33334 14.0261 9.47382 14.2761 9.72387C14.5262 9.97392 14.6667 10.3131 14.6667 10.6667V24C14.6667 24.3536 14.5262 24.6928 14.2761 24.9428C14.0261 25.1929 13.687 25.3333 13.3333 25.3333C12.9797 25.3333 12.6406 25.1929 12.3905 24.9428C12.1405 24.6928 12 24.3536 12 24V10.6667C12 10.3131 12.1405 9.97392 12.3905 9.72387C12.6406 9.47382 12.9797 9.33334 13.3333 9.33334V9.33334ZM20 8.00001C22.0698 7.99994 24.0591 8.8021 25.55 10.238C27.0408 11.6738 27.917 13.6316 27.9947 15.7L27.9987 16.0467C29.1461 16.2102 30.1917 16.7949 30.9317 17.6869C31.6718 18.5789 32.0535 19.7144 32.0024 20.8723C31.9513 22.0302 31.4712 23.1277 30.6554 23.9511C29.8397 24.7745 28.7467 25.2648 27.5893 25.3267L27.3333 25.3333H22.6653C22.3255 25.333 21.9986 25.2028 21.7515 24.9695C21.5044 24.7363 21.3557 24.4174 21.3358 24.0782C21.3159 23.7389 21.4262 23.4048 21.6444 23.1442C21.8625 22.8836 22.1719 22.7162 22.5093 22.676L22.6667 22.6667H27.2627L27.4467 22.664C27.9267 22.6382 28.3814 22.4403 28.7275 22.1065C29.0736 21.7728 29.2879 21.3256 29.3311 20.8468C29.3743 20.3679 29.2436 19.8896 28.9629 19.4992C28.6823 19.1089 28.2703 18.8328 27.8027 18.7213L27.6227 18.6867L25.2627 18.3507L25.3333 15.968L25.328 15.7333C25.2619 14.4125 24.7073 13.1634 23.7721 12.2283C22.8368 11.2933 21.5875 10.7391 20.2667 10.6733L20 10.6667C19.6427 10.6667 19.292 10.7013 18.9493 10.7693L18.6667 10.8347V24C18.6666 24.3266 18.5467 24.6418 18.3297 24.8858C18.1127 25.1299 17.8137 25.2858 17.4893 25.324L17.3333 25.3333C16.9797 25.3333 16.6406 25.1929 16.3905 24.9428C16.1405 24.6928 16 24.3536 16 24L15.9987 9.07068C17.2146 8.36705 18.5951 7.99767 20 8.00001V8.00001ZM1.33333 16C1.68696 16 2.02609 16.1405 2.27614 16.3905C2.52619 16.6406 2.66667 16.9797 2.66667 17.3333V22.6667C2.66667 23.0203 2.52619 23.3594 2.27614 23.6095C2.02609 23.8595 1.68696 24 1.33333 24C0.979711 24 0.640573 23.8595 0.390524 23.6095C0.140476 23.3594 0 23.0203 0 22.6667V17.3333C0 16.9797 0.140476 16.6406 0.390524 16.3905C0.640573 16.1405 0.979711 16 1.33333 16V16Z" fill="white"/>
</g>
<defs>
<clipPath id="clip0_119557_40">
<rect width="32" height="32" fill="white"/>
</clipPath>
</defs>
</svg>
