<svg xmlns="http://www.w3.org/2000/svg" xmlns:xlink="http://www.w3.org/1999/xlink" width="1920" zoomAndPan="magnify" viewBox="0 0 1440 809.999993" height="1080" preserveAspectRatio="xMidYMid meet" version="1.0"><defs><filter x="0%" y="0%" width="100%" height="100%" id="802cf9a734"><feColorMatrix values="0 0 0 0 1 0 0 0 0 1 0 0 0 0 1 0 0 0 1 0" color-interpolation-filters="sRGB"/></filter><mask id="3362009e64"><g filter="url(#802cf9a734)"><rect x="-144" width="1728" fill="#000000" y="-80.999999" height="971.999992" fill-opacity="0.8863"/></g></mask><clipPath id="50fe0c7a5f"><path d="M 0.359375 160.960938 L 176.402344 160.960938 L 176.402344 351.402344 L 0.359375 351.402344 Z M 0.359375 160.960938 " clip-rule="nonzero"/></clipPath><clipPath id="3a817d7144"><rect x="0" width="424" y="0" height="389"/></clipPath></defs><g mask="url(#3362009e64)"><g transform="matrix(1, 0, 0, 1, 639, 149)"><g clip-path="url(#3a817d7144)"><g clip-path="url(#50fe0c7a5f)"><path fill="#e28eff" d="M 133.21875 388.53125 C 133.21875 388.53125 169.839844 203.65625 169.839844 203.65625 C 169.839844 203.65625 176.101562 176.082031 176.101562 176.082031 C 176.101562 176.082031 214.425781 174.296875 214.425781 174.296875 C 214.425781 174.296875 423.433594 147.429688 423.433594 147.429688 C 423.433594 147.429688 376.925781 368.8125 376.925781 368.8125 C 376.925781 368.8125 133.21875 388.53125 133.21875 388.53125 Z M 175.691406 176.207031 C 175.691406 176.207031 176.488281 175.886719 177.816406 175.507812 C 183.871094 173.773438 201.71875 167.90625 213.058594 156.242188 C 226.886719 142.023438 227.484375 109.171875 245.324219 94.621094 C 263.164062 80.074219 284.746094 86.027344 301.859375 68.914062 C 318.976562 51.796875 316.183594 23.890625 332.363281 9.964844 C 339.8125 3.425781 351.34375 0.453125 351.34375 0.453125 C 351.34375 0.453125 351.34375 176.070312 351.34375 176.070312 C 351.34375 176.070312 175.691406 176.207031 175.691406 176.207031 Z M 0.496094 351.699219 C 0.496094 351.699219 24 346.09375 37.828125 331.875 C 51.652344 317.652344 52.25 284.800781 70.089844 270.25 C 87.929688 255.703125 109.511719 261.65625 126.625 244.542969 C 143.742188 227.425781 140.949219 199.519531 157.128906 185.59375 C 164.578125 179.058594 176.113281 176.082031 176.113281 176.082031 C 176.113281 176.082031 176.113281 351.699219 176.113281 351.699219 C 176.113281 351.699219 0.496094 351.699219 0.496094 351.699219 Z M 0.496094 351.699219 " fill-opacity="1" fill-rule="nonzero"/></g></g></g></g></svg>