<svg width="190" height="6" viewBox="0 0 190 6" fill="none" xmlns="http://www.w3.org/2000/svg">
<path d="M1 1.60278C3.08889 2.02507 9.35556 4.13648 13.5333 4.13648C17.7111 4.13648 21.8889 1.60278 26.0667 1.60278C30.2444 1.60278 34.4222 4.13648 38.6 4.13648C42.7778 4.13648 46.9556 1.60278 51.1333 1.60278C55.3111 1.60278 59.4889 4.13648 63.6667 4.13648C67.8444 4.13648 72.0222 1.60278 76.2 1.60278C80.3778 1.60278 84.5556 4.13648 88.7333 4.13648C92.9111 4.13648 97.0889 1.60278 101.267 1.60278C105.444 1.60278 109.622 4.13648 113.8 4.13648C117.978 4.13648 122.156 1.60278 126.333 1.60278C130.511 1.60278 134.689 4.13648 138.867 4.13648C143.044 4.13648 147.222 1.60278 151.4 1.60278C155.578 1.60278 159.756 4.13648 163.933 4.13648C168.111 4.13648 172.289 1.60278 176.467 1.60278C180.644 1.60278 186.911 3.71419 189 4.13648" stroke="#2946BF" stroke-width="2" stroke-linecap="round" stroke-linejoin="round"/>
</svg>
