<svg width="861" height="3" viewBox="0 0 861 3" fill="none" xmlns="http://www.w3.org/2000/svg">
<path d="M0 0.5H6.19448V2.5H0M12.389 0.5H18.5834V2.5H12.389M24.7779 0.5H30.9724V2.5H24.7779M37.1669 0.5H43.3613V2.5H37.1669M49.5558 0.5H55.7503V2.5H49.5558M61.9448 0.5H68.1392V2.5H61.9448M74.3337 0.5H80.5282V2.5H74.3337M86.7227 0.5H92.9171V2.5H86.7227M99.1116 0.5H105.306V2.5H99.1116M111.501 0.5H117.695V2.5H111.501M123.89 0.5H130.084V2.5H123.89M136.278 0.5H142.473V2.5H136.278M148.667 0.5H154.862V2.5H148.667M161.056 0.5H167.251V2.5H161.056M173.445 0.5H179.64V2.5H173.445M185.834 0.5H192.029V2.5H185.834M198.223 0.5H204.418V2.5H198.223M210.612 0.5H216.807V2.5H210.612M223.001 0.5H229.196V2.5H223.001M235.39 0.5H241.568V2.5H235.39M247.763 0.5H253.957V2.5H247.763M260.152 0.5H266.346V2.5H260.152M272.541 0.5H278.735V2.5H272.541M284.93 0.5H291.124V2.5H284.93M297.319 0.5H303.513V2.5H297.319M309.708 0.5H315.902V2.5H309.708M322.097 0.5H328.291V2.5H322.097M334.486 0.5H340.68V2.5H334.486M346.875 0.5H353.069V2.5H346.875M359.264 0.5H365.458V2.5H359.264M371.652 0.5H377.847V2.5H371.652M384.041 0.5H390.236V2.5H384.041M396.43 0.5H402.625V2.5H396.43M408.819 0.5H415.014V2.5H408.819M421.208 0.5H427.403V2.5H421.208M433.597 0.5H439.792V2.5H433.597M445.986 0.5H452.181V2.5H445.986M458.375 0.5H464.57V2.5H458.375M470.764 0.5H476.959V2.5H470.764M483.153 0.5H489.348V2.5H483.153M495.542 0.5H501.736V2.5H495.542M507.931 0.5H514.125V2.5H507.931M520.32 0.5H526.514V2.5H520.32M532.709 0.5H538.903V2.5H532.709M545.098 0.5H551.292V2.5H545.098M557.471 0.5H563.665V2.5H557.471M569.86 0.5H576.054V2.5H569.86M582.249 0.5H588.443V2.5H582.249M594.637 0.5H600.832V2.5H594.637M607.026 0.5H613.221V2.5H607.026M619.415 0.5H625.61V2.5H619.415M631.804 0.5H637.999V2.5H631.804M644.193 0.5H650.388V2.5H644.193M656.582 0.5H662.777V2.5H656.582M668.971 0.5H675.166V2.5H668.971M681.36 0.5H687.555V2.5H681.36M693.749 0.5H699.944V2.5H693.749M706.138 0.5H712.333V2.5H706.138M718.527 0.5H724.721V2.5H718.527M730.916 0.5H737.11V2.5H730.916M743.305 0.5H749.499V2.5H743.305M755.694 0.5H761.888V2.5H755.694M768.083 0.5H774.277V2.5H768.083M780.472 0.5H786.666V2.5H780.472M792.861 0.5H799.055V2.5H792.861M805.25 0.5H811.444V2.5H805.25M817.639 0.5H823.833V2.5H817.639M830.028 0.5H836.222V2.5H830.028M842.417 0.5H848.611V2.5H842.417M854.806 0.5H861V2.5H854.806" fill="#2946BF"/>
</svg>
